<svg
  xmlns="http://www.w3.org/2000/svg"
  width="900"
  height="520"
  viewBox="0 0 900 520"
  role="img"
  aria-label="Rectangle drawn on a pixel screen from 50,80 to 150,130"
>
  <rect x="0" y="0" width="900" height="520" fill="white" />

  <g transform="translate(40 70)">
    <rect x="0" y="0" width="150" height="150" rx="10" fill="white" stroke="black" stroke-width="2" />
    <rect x="25" y="25" width="25" height="25" fill="black" />
    <line x1="0" y1="25" x2="150" y2="25" stroke="black" stroke-width="1" opacity="0.25" />
    <line x1="0" y1="50" x2="150" y2="50" stroke="black" stroke-width="1" opacity="0.25" />
    <line x1="0" y1="75" x2="150" y2="75" stroke="black" stroke-width="1" opacity="0.25" />
    <line x1="0" y1="100" x2="150" y2="100" stroke="black" stroke-width="1" opacity="0.25" />
    <line x1="0" y1="125" x2="150" y2="125" stroke="black" stroke-width="1" opacity="0.25" />
    <line x1="25" y1="0" x2="25" y2="150" stroke="black" stroke-width="1" opacity="0.25" />
    <line x1="50" y1="0" x2="50" y2="150" stroke="black" stroke-width="1" opacity="0.25" />
    <line x1="75" y1="0" x2="75" y2="150" stroke="black" stroke-width="1" opacity="0.25" />
    <line x1="100" y1="0" x2="100" y2="150" stroke="black" stroke-width="1" opacity="0.25" />
    <line x1="125" y1="0" x2="125" y2="150" stroke="black" stroke-width="1" opacity="0.25" />
    <circle cx="25" cy="25" r="3.5" fill="#2563eb" />
    <text x="8" y="18" fill="black" font-family="monospace" font-size="12">(0,0)</text>
  </g>

  <path d="M 205 145 C 250 145, 260 115, 305 95" fill="none" stroke="black" stroke-width="2" opacity="0.5" />
  <circle cx="305" cy="95" r="4" fill="#2563eb" />

  <g transform="translate(300 35)">
    <rect x="0" y="0" width="320" height="440" rx="14" fill="#fafafa" stroke="black" stroke-width="2.5" />

    <rect x="0" y="0" width="320" height="440" fill="white" />

    <g opacity="0.12" shape-rendering="crispEdges">
      <line x1="10" y1="0" x2="10" y2="440" stroke="black" stroke-width="1" />
      <line x1="20" y1="0" x2="20" y2="440" stroke="black" stroke-width="1" />
      <line x1="30" y1="0" x2="30" y2="440" stroke="black" stroke-width="1" />
      <line x1="40" y1="0" x2="40" y2="440" stroke="black" stroke-width="1" />
      <line x1="50" y1="0" x2="50" y2="440" stroke="black" stroke-width="1" />
      <line x1="60" y1="0" x2="60" y2="440" stroke="black" stroke-width="1" />
      <line x1="70" y1="0" x2="70" y2="440" stroke="black" stroke-width="1" />
      <line x1="80" y1="0" x2="80" y2="440" stroke="black" stroke-width="1" />
      <line x1="90" y1="0" x2="90" y2="440" stroke="black" stroke-width="1" />
      <line x1="100" y1="0" x2="100" y2="440" stroke="black" stroke-width="1" />
      <line x1="110" y1="0" x2="110" y2="440" stroke="black" stroke-width="1" />
      <line x1="120" y1="0" x2="120" y2="440" stroke="black" stroke-width="1" />
      <line x1="130" y1="0" x2="130" y2="440" stroke="black" stroke-width="1" />
      <line x1="140" y1="0" x2="140" y2="440" stroke="black" stroke-width="1" />
      <line x1="150" y1="0" x2="150" y2="440" stroke="black" stroke-width="1" />
      <line x1="160" y1="0" x2="160" y2="440" stroke="black" stroke-width="1" />
      <line x1="170" y1="0" x2="170" y2="440" stroke="black" stroke-width="1" />
      <line x1="180" y1="0" x2="180" y2="440" stroke="black" stroke-width="1" />
      <line x1="190" y1="0" x2="190" y2="440" stroke="black" stroke-width="1" />
      <line x1="200" y1="0" x2="200" y2="440" stroke="black" stroke-width="1" />
      <line x1="210" y1="0" x2="210" y2="440" stroke="black" stroke-width="1" />
      <line x1="220" y1="0" x2="220" y2="440" stroke="black" stroke-width="1" />
      <line x1="230" y1="0" x2="230" y2="440" stroke="black" stroke-width="1" />
      <line x1="240" y1="0" x2="240" y2="440" stroke="black" stroke-width="1" />
      <line x1="250" y1="0" x2="250" y2="440" stroke="black" stroke-width="1" />
      <line x1="260" y1="0" x2="260" y2="440" stroke="black" stroke-width="1" />
      <line x1="270" y1="0" x2="270" y2="440" stroke="black" stroke-width="1" />
      <line x1="280" y1="0" x2="280" y2="440" stroke="black" stroke-width="1" />
      <line x1="290" y1="0" x2="290" y2="440" stroke="black" stroke-width="1" />
      <line x1="300" y1="0" x2="300" y2="440" stroke="black" stroke-width="1" />
      <line x1="310" y1="0" x2="310" y2="440" stroke="black" stroke-width="1" />

      <line x1="0" y1="10" x2="320" y2="10" stroke="black" stroke-width="1" />
      <line x1="0" y1="20" x2="320" y2="20" stroke="black" stroke-width="1" />
      <line x1="0" y1="30" x2="320" y2="30" stroke="black" stroke-width="1" />
      <line x1="0" y1="40" x2="320" y2="40" stroke="black" stroke-width="1" />
      <line x1="0" y1="50" x2="320" y2="50" stroke="black" stroke-width="1" />
      <line x1="0" y1="60" x2="320" y2="60" stroke="black" stroke-width="1" />
      <line x1="0" y1="70" x2="320" y2="70" stroke="black" stroke-width="1" />
      <line x1="0" y1="80" x2="320" y2="80" stroke="black" stroke-width="1" />
      <line x1="0" y1="90" x2="320" y2="90" stroke="black" stroke-width="1" />
      <line x1="0" y1="100" x2="320" y2="100" stroke="black" stroke-width="1" />
      <line x1="0" y1="110" x2="320" y2="110" stroke="black" stroke-width="1" />
      <line x1="0" y1="120" x2="320" y2="120" stroke="black" stroke-width="1" />
      <line x1="0" y1="130" x2="320" y2="130" stroke="black" stroke-width="1" />
      <line x1="0" y1="140" x2="320" y2="140" stroke="black" stroke-width="1" />
      <line x1="0" y1="150" x2="320" y2="150" stroke="black" stroke-width="1" />
      <line x1="0" y1="160" x2="320" y2="160" stroke="black" stroke-width="1" />
      <line x1="0" y1="170" x2="320" y2="170" stroke="black" stroke-width="1" />
      <line x1="0" y1="180" x2="320" y2="180" stroke="black" stroke-width="1" />
      <line x1="0" y1="190" x2="320" y2="190" stroke="black" stroke-width="1" />
      <line x1="0" y1="200" x2="320" y2="200" stroke="black" stroke-width="1" />
      <line x1="0" y1="210" x2="320" y2="210" stroke="black" stroke-width="1" />
      <line x1="0" y1="220" x2="320" y2="220" stroke="black" stroke-width="1" />
      <line x1="0" y1="230" x2="320" y2="230" stroke="black" stroke-width="1" />
      <line x1="0" y1="240" x2="320" y2="240" stroke="black" stroke-width="1" />
      <line x1="0" y1="250" x2="320" y2="250" stroke="black" stroke-width="1" />
      <line x1="0" y1="260" x2="320" y2="260" stroke="black" stroke-width="1" />
      <line x1="0" y1="270" x2="320" y2="270" stroke="black" stroke-width="1" />
      <line x1="0" y1="280" x2="320" y2="280" stroke="black" stroke-width="1" />
      <line x1="0" y1="290" x2="320" y2="290" stroke="black" stroke-width="1" />
      <line x1="0" y1="300" x2="320" y2="300" stroke="black" stroke-width="1" />
      <line x1="0" y1="310" x2="320" y2="310" stroke="black" stroke-width="1" />
      <line x1="0" y1="320" x2="320" y2="320" stroke="black" stroke-width="1" />
      <line x1="0" y1="330" x2="320" y2="330" stroke="black" stroke-width="1" />
      <line x1="0" y1="340" x2="320" y2="340" stroke="black" stroke-width="1" />
      <line x1="0" y1="350" x2="320" y2="350" stroke="black" stroke-width="1" />
      <line x1="0" y1="360" x2="320" y2="360" stroke="black" stroke-width="1" />
      <line x1="0" y1="370" x2="320" y2="370" stroke="black" stroke-width="1" />
      <line x1="0" y1="380" x2="320" y2="380" stroke="black" stroke-width="1" />
      <line x1="0" y1="390" x2="320" y2="390" stroke="black" stroke-width="1" />
      <line x1="0" y1="400" x2="320" y2="400" stroke="black" stroke-width="1" />
      <line x1="0" y1="410" x2="320" y2="410" stroke="black" stroke-width="1" />
      <line x1="0" y1="420" x2="320" y2="420" stroke="black" stroke-width="1" />
      <line x1="0" y1="430" x2="320" y2="430" stroke="black" stroke-width="1" />
    </g>

    <line x1="0" y1="0" x2="70" y2="0" stroke="#2563eb" stroke-width="2" />
    <polygon points="70,0 62,-4 62,4" fill="#2563eb" />
    <line x1="0" y1="0" x2="0" y2="70" stroke="#16a34a" stroke-width="2" />
    <polygon points="0,70 -4,62 4,62" fill="#16a34a" />

    <circle cx="0" cy="0" r="4" fill="#111827" />
    <text x="8" y="16" fill="black" font-family="monospace" font-size="12">(0,0)</text>

    <rect x="50" y="80" width="100" height="50" fill="black" />

    <line x1="50" y1="0" x2="50" y2="80" stroke="#2563eb" stroke-width="2" stroke-dasharray="5 5" />
    <line x1="0" y1="80" x2="50" y2="80" stroke="#16a34a" stroke-width="2" stroke-dasharray="5 5" />
    <line x1="150" y1="0" x2="150" y2="130" stroke="#2563eb" stroke-width="2" stroke-dasharray="5 5" opacity="0.7" />
    <line x1="0" y1="130" x2="150" y2="130" stroke="#16a34a" stroke-width="2" stroke-dasharray="5 5" opacity="0.7" />

    <circle cx="50" cy="80" r="5" fill="#2563eb" />
    <circle cx="150" cy="130" r="5" fill="#16a34a" />

    <text x="42" y="-10" fill="#2563eb" font-family="monospace" font-size="13">50</text>
    <text x="138" y="-10" fill="#2563eb" font-family="monospace" font-size="13">150</text>
    <text x="-24" y="84" fill="#16a34a" font-family="monospace" font-size="13">80</text>
    <text x="-32" y="134" fill="#16a34a" font-family="monospace" font-size="13">130</text>

    <text x="58" y="74" fill="black" font-family="monospace" font-size="12">(50,80)</text>
    <text x="160" y="146" fill="black" font-family="monospace" font-size="12">(150,130)</text>

    <line x1="50" y1="58" x2="150" y2="58" stroke="black" stroke-width="1.5" />
    <polygon points="50,58 57,54 57,62" fill="black" />
    <polygon points="150,58 143,54 143,62" fill="black" />

    <line x1="168" y1="80" x2="168" y2="130" stroke="black" stroke-width="1.5" />
    <polygon points="168,80 164,87 172,87" fill="black" />
    <polygon points="168,130 164,123 172,123" fill="black" />

    <circle cx="319" cy="439" r="3" fill="#111827" />
    <text x="220" y="430" fill="black" font-family="monospace" font-size="12">(319,527)</text>
  </g>
</svg>