<?xml version="1.0" encoding="UTF-8" standalone="no"?>
<svg xmlns="http://www.w3.org/2000/svg" width="50.655ex" height="5.516ex" viewBox="0 -1469.1 22389.6 2438.2" xmlns:xlink="http://www.w3.org/1999/xlink" style="vertical-align: -2.193ex;" aria-hidden="true">
  <defs>
    <style>
      svg a{fill:blue;stroke:blue}
      [data-mml-node="merror"]>g{fill:red;stroke:red}
      [data-mml-node="merror"]>rect[data-background]{fill:yellow;stroke:none}
      [data-frame],[data-line]{stroke-width:70px;fill:none}
      .mjx-dashed{stroke-dasharray:140}
      .mjx-dotted{stroke-linecap:round;stroke-dasharray:0,140}
      use[data-c]{stroke-width:3px}
    </style>
    <path id="MJX-5-NCM-I-1D453" d="M552 633C552 677 509 705 462 705C400 705 357 665 334 586C329 568 318 517 302 433L237 433C215 433 204 432 204 411C204 400 214 395 235 395L295 395L222 8C211-49 201-91 192-119C180-156 163-175 141-175C126-175 114-171 103-164C135-159 151-140 151-108C151-82 138-69 111-69C77-69 53-99 53-133C53-177 94-205 141-205C166-205 189-195 208-174C240-141 265-94 283-31C294 8 304 46 311 84L369 395L451 395C474 395 484 396 484 419C484 428 474 433 454 433L377 433C383 474 411 625 420 644C430 665 444 675 462 675C477 675 490 671 501 664C470 657 454 639 454 608C454 582 467 569 494 569C528 569 552 599 552 633Z"/>
    <path id="MJX-5-NCM-I-1D446" d="M133 157C133 181 136 201 141 217C141 227 136 232 125 232C120 232 116 230 114 228C109 223 52 8 52-8C52-17 57-22 67-22C72-22 79-17 88-6L133 47C168 1 224-22 300-22C366-22 424 5 476 58C528 111 554 170 554 236C554 283 538 323 505 355C490 368 470 379 445 388C422 393 400 399 378 405L312 423C279 432 254 469 254 509C254 552 271 589 306 621C341 653 380 669 423 669C515 669 561 619 561 520C561 502 557 482 557 465L557 462C560 455 565 451 573 451C582 451 588 459 592 474L645 691C645 700 640 705 630 705C625 705 618 700 609 689L566 637C538 682 491 705 424 705C361 705 304 681 254 634C202 586 176 531 176 468C176 396 223 339 282 323L387 296C441 281 475 262 475 195C475 149 457 108 422 72C387 36 347 17 302 17C204 17 133 60 133 157Z"/>
    <path id="MJX-5-NCM-N-2062" d=""/>
    <path id="MJX-5-NCM-N-3D" d="M698 367L80 367C64 367 56 359 56 344C56 329 64 321 80 321L698 321C714 321 722 329 722 344C722 356 711 367 698 367M698 179L80 179C64 179 56 171 56 156C56 141 64 133 80 133L698 133C714 133 722 141 722 156C722 169 711 179 698 179Z"/>
    <path id="MJX-5-NCM-S6-7B" d="M197 250C300 300 425 413 425 549L425 1147C425 1201 446 1253 489 1303C529 1350 576 1382 629 1399C642 1403 648 1411 648 1424C648 1441 639 1450 622 1450C619 1450 617 1450 615 1449C543 1426 479 1389 423 1338C358 1277 325 1214 325 1147L325 549C325 490 305 434 265 381C225 328 177 292 121 275C108 271 102 263 102 250C102 237 108 229 121 225C177 208 225 172 265 119C305 66 325 10 325-49L325-647C325-714 358-777 423-838C479-889 543-926 615-949C617-950 619-950 622-950C639-950 648-941 648-924C648-911 642-903 629-899C576-882 529-850 489-803C446-753 425-701 425-647L425-49C425 87 300 200 197 250Z"/>
    <path id="MJX-5-NCM-N-30" d="M249-22C390-22 460 92 460 320C460 473 428 575 365 625C330 652 291 666 250 666C109 666 39 551 39 320C39 136 88-22 249-22M361 524C368 489 371 425 371 332C371 240 367 172 360 128C347 48 310 8 249 8C226 8 203 17 182 34C155 57 139 104 132 176C129 201 128 253 128 332C128 419 131 480 136 513C145 568 163 603 191 618C213 630 232 636 249 636C314 636 350 583 361 524Z"/>
    <path id="MJX-5-NCM-N-D7" d="M630 32C630 39 628 44 623 49L422 250L623 451C628 456 630 461 630 468C630 481 620 491 607 491C600 491 595 489 590 484L389 283L188 484C183 489 178 491 171 491C158 491 148 481 148 468C148 461 150 456 155 451L356 250L155 49C150 44 148 39 148 32C148 19 158 9 171 9C178 9 183 11 188 16L389 217L590 16C595 11 600 9 607 9C620 9 630 19 630 32Z"/>
    <path id="MJX-5-NCM-LO-28" d="M380-347C390-347 395-342 395-332C395-327 393-323 390-320C329-273 280-196 243-88C211 5 195 97 195 186L195 314C195 403 211 495 243 588C280 696 329 773 390 820C393 823 395 827 395 832C395 842 390 847 380 847C378 847 375 846 372 844C302 791 244 711 198 604C153 503 131 406 131 314L131 186C131 94 153-3 198-104C244-211 302-291 372-344C375-346 378-347 380-347Z"/>
    <path id="MJX-5-NCM-N-31" d="M269 666C228 624 168 603 89 603L89 564C141 564 184 572 217 588L217 82C217 64 213 52 204 47C195 42 170 39 130 39L95 39L95 0C120 2 174 3 257 3C340 3 394 2 419 0L419 39L384 39C343 39 318 42 310 47C302 52 297 64 297 82L297 636C297 660 295 666 269 666Z"/>
    <path id="MJX-5-NCM-N-2212" d="M698 270L80 270C64 270 56 263 56 250C56 237 64 230 80 230L698 230C714 230 722 237 722 250C722 262 710 270 698 270Z"/>
    <path id="MJX-5-NCM-N-2E" d="M192 53C192 82 168 106 139 106C110 106 86 82 86 53C86 24 110 0 139 0C168 0 192 24 192 53Z"/>
    <path id="MJX-5-NCM-N-36" d="M383 504C416 504 432 521 432 555C432 627 378 666 304 666C221 666 155 627 106 548C63 480 42 403 42 316C42 189 65 100 112 47C152 1 198-22 251-22C312-22 362 1 401 47C438 91 457 144 457 205C457 266 439 318 403 361C365 407 316 431 257 431C205 431 165 402 138 346L138 352C138 465 166 561 226 605C252 624 279 633 306 633C342 633 368 623 385 602C351 602 334 583 334 553C334 525 355 504 383 504M344 340C355 317 361 272 361 206C361 141 356 98 345 76C325 35 294 14 251 14C222 14 200 24 184 44C171 60 162 74 158 85C146 116 140 163 140 227C140 255 144 282 151 308C164 355 201 399 256 399C295 399 325 379 344 340Z"/>
    <path id="MJX-5-NCM-N-25" d="M643-56C687-56 721-32 746 17C766 56 776 99 776 147C776 194 766 238 746 278C721 327 686 351 643 351C597 351 560 328 531 282C506 242 494 197 494 148C494 98 506 53 530 14C559-33 596-56 643-56M583 640L148-10C141-20 138-27 138-32C138-48 146-56 162-56C170-56 178-50 185-39L685 706C691 715 694 721 694 726C694 742 686 750 670 750C662 750 654 745 646 735C600 673 538 642 461 642C394 642 333 667 279 717C256 739 231 750 205 750C158 750 121 727 93 681C68 641 56 596 56 547C56 497 68 452 92 413C121 366 158 343 205 343C249 343 283 367 308 416C328 455 338 498 338 546C338 583 332 617 321 649C367 624 414 612 462 612C510 612 550 621 583 640M644 321C677 321 702 299 721 255C736 221 743 185 743 148C743 110 736 74 722 40C703-4 677-26 644-26C619-26 597-5 587 15C571 43 563 87 563 147C563 214 576 281 608 307C620 316 632 321 644 321M206 720C239 720 264 698 283 654C298 620 305 584 305 547C305 509 298 473 284 439C265 395 239 373 206 373C195 373 183 378 171 387C134 415 125 468 125 546C125 613 138 680 170 706C182 715 194 720 206 720Z"/>
    <path id="MJX-5-NCM-I-1D443" d="M555 683L235 683C212 683 201 682 201 660C201 649 212 644 234 644C254 644 294 647 294 631C294 629 293 623 290 613L158 82C152 60 142 47 128 42C121 40 103 39 72 39C50 39 40 37 40 16C40 5 46 0 59 0L184 3L248 2C259 2 299 0 312 0C328 0 336 8 336 24C336 34 325 39 304 39C264 39 244 43 244 52C244 52 245 55 247 68L307 312L472 312C537 312 599 332 657 371C722 414 754 467 754 530C754 629 660 683 555 683M524 644C611 644 654 614 654 554C654 498 626 423 597 397C559 363 509 346 447 346L313 346L379 610C387 644 387 644 429 644Z"/>
    <path id="MJX-5-NCM-I-1D43F" d="M520 667C520 678 513 683 500 683L354 680L223 683C208 684 200 676 200 659C200 652 203 647 209 646C218 645 226 644 231 644C262 643 279 641 284 640C289 639 292 636 292 631C292 629 291 623 288 613L156 82C150 60 140 47 125 42C119 40 101 39 70 39C49 39 39 31 39 15C39 5 49 0 70 0L527 0C552 0 554 0 561 19L639 233C642 240 643 245 643 248C643 258 638 263 627 263C617 263 612 254 607 240C588 191 570 154 555 131C518 75 455 39 363 39L270 39C259 39 252 39 249 40C242 40 239 42 239 45C239 47 241 54 244 67L377 601C383 624 396 637 415 642C421 643 442 644 478 644C506 644 520 644 520 667Z"/>
    <path id="MJX-5-NCM-LO-29" d="M86-344C156-291 214-211 260-104C305-3 327 94 327 186L327 314C327 406 305 503 260 604C214 711 156 791 86 844C83 846 80 847 78 847C68 847 63 842 63 832C63 827 65 823 68 820C129 773 178 696 215 588C247 495 263 403 263 314L263 186C263 97 247 5 215-88C178-196 129-273 68-320C65-323 63-327 63-332C63-342 68-347 78-347C80-347 83-346 86-344Z"/>
    <path id="MJX-5-NCM-N-2C" d="M139 106C107 106 86 82 86 50C86 20 109-5 139-5C153-5 165-1 174 8L175 0C175-63 154-117 112-160C105-168 101-174 101-178C101-188 105-193 114-193C123-193 135-181 152-158C186-110 203-57 203 0C203 53 185 106 139 106Z"/>
    <path id="MJX-5-NCM-N-69" d="M194 601C194 631 169 657 139 657C109 657 83 631 83 601C83 571 108 544 138 544C169 544 194 570 194 601M143 3L247 0L247 39C214 39 194 41 188 45C182 49 180 60 180 78L180 445L37 433L37 395C70 395 91 392 98 387C105 382 108 368 108 345L108 79C108 60 105 48 98 44C91 40 69 39 33 39L33 0Z"/>
    <path id="MJX-5-NCM-N-66" d="M265 705C176 705 110 633 110 544L110 434L33 434L33 396L110 396L110 79C110 60 107 48 100 44C93 40 71 39 34 39L34 0L149 3C191 4 234 3 277 0L277 39L253 39C220 39 199 41 192 46C185 51 182 63 182 81L182 396L294 396L294 434L179 434L179 545C179 605 210 675 265 675C273 675 280 674 287 672C272 664 264 650 264 631C264 600 279 584 310 584C341 584 357 600 357 632C357 677 310 705 265 705Z"/>
    <path id="MJX-5-NCM-N-A0" d=""/>
    <path id="MJX-5-NCM-N-33" d="M303 353C369 378 431 441 431 526C431 569 410 604 369 631C333 654 292 666 246 666C201 666 162 654 127 631C88 605 68 571 68 528C68 495 90 472 122 472C154 472 176 495 176 527C176 560 157 578 119 580C145 615 186 633 242 633C302 633 332 598 332 527C332 485 324 450 309 421C282 373 245 364 183 364C171 362 165 357 165 348C165 333 172 333 192 333L235 333C310 333 348 280 348 173C348 88 317 14 241 14C176 14 128 36 99 80C134 79 160 105 160 139C160 173 135 198 101 198C62 198 42 178 42 137C42 88 64 49 108 18C147-9 193-22 244-22C301-22 350-3 393 34C436 71 457 117 457 173C457 267 383 332 303 353Z"/>
    <path id="MJX-5-NCM-N-2264" d="M668 38C686 29 703 44 703 60C703 69 698 76 689 80L155 333L689 586C698 590 703 597 703 606C703 623 695 631 679 631C675 631 671 630 668 629L94 357C84 352 79 344 79 333C79 322 84 315 94 310M678-72L100-72C84-72 76-80 76-95C76-111 84-119 100-119L678-119C694-119 702-111 702-95C702-83 691-72 678-72Z"/>
    <path id="MJX-5-NCM-N-32" d="M237 666C186 666 143 648 106 612C69 576 50 534 50 483C50 449 75 424 106 424C136 424 161 450 161 480C161 513 137 536 105 536C102 536 100 536 98 535C117 584 161 627 224 627C306 627 352 556 352 470C352 403 318 331 250 255L62 43C49 28 50 29 50 0L421 0L450 180L417 180C409 129 402 100 396 91C391 86 361 84 306 84L139 84L236 179C304 243 390 312 419 365C439 400 449 435 449 470C449 588 357 666 237 666Z"/>
  </defs>
  <g stroke="black" fill="black" stroke-width="0" transform="scale(1,-1)">
    <g data-mml-node="math" class="">
      <g data-mml-node="msub" class="">
        <g data-mml-node="mi">
          <use data-c="1D453" xlink:href="#MJX-5-NCM-I-1D453"/>
        </g>
        <g data-mml-node="TeXAtom" transform="translate(523,-150) scale(0.707)" data-mjx-texclass="ORD">
          <g data-mml-node="mi">
            <use data-c="1D446" xlink:href="#MJX-5-NCM-I-1D446"/>
          </g>
          <g data-mml-node="mo" transform="translate(645,0)">
            <use data-c="2062" xlink:href="#MJX-5-NCM-N-2062"/>
          </g>
          <g data-mml-node="mi" transform="translate(645,0)">
            <use data-c="1D446" xlink:href="#MJX-5-NCM-I-1D446"/>
          </g>
        </g>
      </g>
      <g data-mml-node="mo" transform="translate(1762.9,0)">
        <use data-c="3D" xlink:href="#MJX-5-NCM-N-3D"/>
      </g>
      <g data-mml-node="TeXAtom" data-mjx-texclass="INNER" transform="translate(2818.7,0)">
        <g data-mml-node="mrow" class="">
          <g data-mml-node="mo" data-mjx-texclass="OPEN">
            <use data-c="7B" xlink:href="#MJX-5-NCM-S6-7B"/>
          </g>
          <g data-mml-node="mtable" transform="translate(750,0)">
            <g data-mml-node="mtr" transform="translate(0,591.4)">
              <g data-mml-node="mtd">
                <g data-mml-node="mrow">
                  <g data-mml-node="mrow">
                    <g data-mml-node="msub">
                      <g data-mml-node="mi">
                        <use data-c="1D453" xlink:href="#MJX-5-NCM-I-1D453"/>
                      </g>
                      <g data-mml-node="mn" transform="translate(523,-150) scale(0.707)">
                        <use data-c="30" xlink:href="#MJX-5-NCM-N-30"/>
                      </g>
                    </g>
                    <g data-mml-node="mo" transform="translate(1148.8,0)">
                      <use data-c="D7" xlink:href="#MJX-5-NCM-N-D7"/>
                    </g>
                    <g data-mml-node="TeXAtom" data-mjx-texclass="INNER" transform="translate(2149,0)">
                      <g data-mml-node="mo" data-mjx-texclass="OPEN">
                        <use data-c="28" xlink:href="#MJX-5-NCM-LO-28"/>
                      </g>
                      <g data-mml-node="mrow" transform="translate(458,0)">
                        <g data-mml-node="mn">
                          <use data-c="31" xlink:href="#MJX-5-NCM-N-31"/>
                        </g>
                        <g data-mml-node="mo" transform="translate(722.2,0)">
                          <use data-c="2212" xlink:href="#MJX-5-NCM-N-2212"/>
                        </g>
                        <g data-mml-node="mrow" transform="translate(1722.4,0)">
                          <g data-mml-node="mrow">
                            <g data-mml-node="mn">
                              <use data-c="31" xlink:href="#MJX-5-NCM-N-31"/>
                              <use data-c="2E" xlink:href="#MJX-5-NCM-N-2E" transform="translate(500,0)"/>
                              <use data-c="36" xlink:href="#MJX-5-NCM-N-36" transform="translate(778,0)"/>
                            </g>
                            <g data-mml-node="mi" transform="translate(1278,0)">
                              <use data-c="25" xlink:href="#MJX-5-NCM-N-25"/>
                            </g>
                          </g>
                          <g data-mml-node="mo" transform="translate(2333.2,0)">
                            <use data-c="D7" xlink:href="#MJX-5-NCM-N-D7"/>
                          </g>
                          <g data-mml-node="mfrac" transform="translate(3333.4,0)">
                            <g data-mml-node="mrow" transform="translate(220,394) scale(0.707)">
                              <g data-mml-node="mi">
                                <use data-c="1D443" xlink:href="#MJX-5-NCM-I-1D443"/>
                              </g>
                              <g data-mml-node="mo" transform="translate(754,0)">
                                <use data-c="2062" xlink:href="#MJX-5-NCM-N-2062"/>
                              </g>
                              <g data-mml-node="mi" transform="translate(754,0)">
                                <use data-c="1D43F" xlink:href="#MJX-5-NCM-I-1D43F"/>
                              </g>
                              <g data-mml-node="mo" transform="translate(1435,0)">
                                <use data-c="2062" xlink:href="#MJX-5-NCM-N-2062"/>
                              </g>
                              <g data-mml-node="mi" transform="translate(1435,0)">
                                <use data-c="1D43F" xlink:href="#MJX-5-NCM-I-1D43F"/>
                              </g>
                            </g>
                            <g data-mml-node="mn" transform="translate(614.6,-345) scale(0.707)">
                              <use data-c="31" xlink:href="#MJX-5-NCM-N-31"/>
                              <use data-c="36" xlink:href="#MJX-5-NCM-N-36" transform="translate(500,0)"/>
                            </g>
                            <rect width="1696.2" height="60" x="120" y="220"/>
                          </g>
                        </g>
                      </g>
                      <g data-mml-node="mo" data-mjx-texclass="CLOSE" transform="translate(7450.1,0)">
                        <use data-c="29" xlink:href="#MJX-5-NCM-LO-29"/>
                      </g>
                    </g>
                  </g>
                  <g data-mml-node="mo" transform="translate(10223.8,0)">
                    <use data-c="2C" xlink:href="#MJX-5-NCM-N-2C"/>
                  </g>
                </g>
              </g>
              <g data-mml-node="mtd" transform="translate(11501.8,0)">
                <g data-mml-node="mrow">
                  <g data-mml-node="mtext">
                    <use data-c="69" xlink:href="#MJX-5-NCM-N-69"/>
                    <use data-c="66" xlink:href="#MJX-5-NCM-N-66" transform="translate(278,0)"/>
                    <use data-c="A0" xlink:href="#MJX-5-NCM-N-A0" transform="translate(584,0)"/>
                  </g>
                  <g data-mml-node="mrow" transform="translate(916,0)">
                    <g data-mml-node="mn">
                      <use data-c="33" xlink:href="#MJX-5-NCM-N-33"/>
                    </g>
                    <g data-mml-node="mo" transform="translate(777.8,0)">
                      <use data-c="2264" xlink:href="#MJX-5-NCM-N-2264"/>
                    </g>
                    <g data-mml-node="mrow" transform="translate(1833.6,0)">
                      <g data-mml-node="mi">
                        <use data-c="1D443" xlink:href="#MJX-5-NCM-I-1D443"/>
                      </g>
                      <g data-mml-node="mo" transform="translate(754,0)">
                        <use data-c="2062" xlink:href="#MJX-5-NCM-N-2062"/>
                      </g>
                      <g data-mml-node="mi" transform="translate(754,0)">
                        <use data-c="1D43F" xlink:href="#MJX-5-NCM-I-1D43F"/>
                      </g>
                      <g data-mml-node="mo" transform="translate(1435,0)">
                        <use data-c="2062" xlink:href="#MJX-5-NCM-N-2062"/>
                      </g>
                      <g data-mml-node="mi" transform="translate(1435,0)">
                        <use data-c="1D43F" xlink:href="#MJX-5-NCM-I-1D43F"/>
                      </g>
                    </g>
                    <g data-mml-node="mo" transform="translate(4227.3,0)">
                      <use data-c="2264" xlink:href="#MJX-5-NCM-N-2264"/>
                    </g>
                    <g data-mml-node="mn" transform="translate(5283.1,0)">
                      <use data-c="33" xlink:href="#MJX-5-NCM-N-33"/>
                      <use data-c="32" xlink:href="#MJX-5-NCM-N-32" transform="translate(500,0)"/>
                    </g>
                  </g>
                </g>
              </g>
            </g>
            <g data-mml-node="mtr" transform="translate(0,-719.1)">
              <g data-mml-node="mtd">
                <g data-mml-node="mrow">
                  <g data-mml-node="msub">
                    <g data-mml-node="mi">
                      <use data-c="1D453" xlink:href="#MJX-5-NCM-I-1D453"/>
                    </g>
                    <g data-mml-node="mn" transform="translate(523,-150) scale(0.707)">
                      <use data-c="30" xlink:href="#MJX-5-NCM-N-30"/>
                    </g>
                  </g>
                  <g data-mml-node="mo" transform="translate(926.6,0)">
                    <use data-c="2C" xlink:href="#MJX-5-NCM-N-2C"/>
                  </g>
                </g>
              </g>
              <g data-mml-node="mtd" transform="translate(11501.8,0)">
                <g data-mml-node="mrow">
                  <g data-mml-node="mtext">
                    <use data-c="69" xlink:href="#MJX-5-NCM-N-69"/>
                    <use data-c="66" xlink:href="#MJX-5-NCM-N-66" transform="translate(278,0)"/>
                    <use data-c="A0" xlink:href="#MJX-5-NCM-N-A0" transform="translate(584,0)"/>
                  </g>
                  <g data-mml-node="mrow" transform="translate(916,0)">
                    <g data-mml-node="mn">
                      <use data-c="31" xlink:href="#MJX-5-NCM-N-31"/>
                    </g>
                    <g data-mml-node="mo" transform="translate(777.8,0)">
                      <use data-c="2264" xlink:href="#MJX-5-NCM-N-2264"/>
                    </g>
                    <g data-mml-node="mrow" transform="translate(1833.6,0)">
                      <g data-mml-node="mi">
                        <use data-c="1D443" xlink:href="#MJX-5-NCM-I-1D443"/>
                      </g>
                      <g data-mml-node="mo" transform="translate(754,0)">
                        <use data-c="2062" xlink:href="#MJX-5-NCM-N-2062"/>
                      </g>
                      <g data-mml-node="mi" transform="translate(754,0)">
                        <use data-c="1D43F" xlink:href="#MJX-5-NCM-I-1D43F"/>
                      </g>
                      <g data-mml-node="mo" transform="translate(1435,0)">
                        <use data-c="2062" xlink:href="#MJX-5-NCM-N-2062"/>
                      </g>
                      <g data-mml-node="mi" transform="translate(1435,0)">
                        <use data-c="1D43F" xlink:href="#MJX-5-NCM-I-1D43F"/>
                      </g>
                    </g>
                    <g data-mml-node="mo" transform="translate(4227.3,0)">
                      <use data-c="2264" xlink:href="#MJX-5-NCM-N-2264"/>
                    </g>
                    <g data-mml-node="mn" transform="translate(5283.1,0)">
                      <use data-c="32" xlink:href="#MJX-5-NCM-N-32"/>
                    </g>
                  </g>
                </g>
              </g>
            </g>
          </g>
        </g>
        <g data-mml-node="mo" data-mjx-texclass="CLOSE" transform="translate(19450.9,0) translate(0 250)"/>
      </g>
    </g>
  </g>
</svg>
